<?xml version="1.0" encoding="UTF-8" standalone="no"?>
<svg
   xmlns:dc="http://purl.org/dc/elements/1.1/"
   xmlns:cc="http://creativecommons.org/ns#"
   xmlns:rdf="http://www.w3.org/1999/02/22-rdf-syntax-ns#"
   xmlns:svg="http://www.w3.org/2000/svg"
   xmlns="http://www.w3.org/2000/svg"
   viewBox="0 0 1365.3333 1024"
   height="1024"
   width="1365.3333"
   xml:space="preserve"
   id="svg10"
   version="1.1"><metadata
     id="metadata16"><rdf:RDF><cc:Work
         rdf:about=""><dc:format>image/svg+xml</dc:format><dc:type
           rdf:resource="http://purl.org/dc/dcmitype/StillImage" /><dc:title></dc:title></cc:Work></rdf:RDF></metadata><defs
     id="defs14"><clipPath
       id="clipPath28"
       clipPathUnits="userSpaceOnUse"><path
         id="path26"
         d="M 0,0 H 1024 V 768 H 0 Z" /></clipPath></defs><g
     transform="matrix(1.3333333,0,0,-1.3333333,0,1024)"
     id="g18"><g
       id="g20" /><g
       id="g22"><g
         clip-path="url(#clipPath28)"
         id="g24"><path
           id="path30"
           style="fill:#ffffff;fill-opacity:1;fill-rule:nonzero;stroke:none"
           d="M 0,768 H 1024 V 0 H 0 Z" /><path
           id="path32"
           style="fill:#ff0055;fill-opacity:1;fill-rule:nonzero;stroke:none"
           d="m 371.0191,703.2642 c 4.9811,-4.9811 4.9811,-13.0571 0,-18.0381 -4.9811,-4.9811 -13.0571,-4.9811 -18.0382,0 -4.9811,4.981 -4.9811,13.057 0,18.0381 4.9811,4.9811 13.0571,4.9811 18.0382,0 z" /><path
           id="path34"
           style="fill:#ff0000;fill-opacity:1;fill-rule:nonzero;stroke:none"
           d="m 371.0191,609.2642 c 4.9811,-4.9811 4.9811,-13.0571 0,-18.0381 -4.9811,-4.9811 -13.0571,-4.9811 -18.0382,0 -4.9811,4.981 -4.9811,13.057 0,18.0381 4.9811,4.9811 13.0571,4.9811 18.0382,0 z" /><g
           transform="matrix(0,1,1,0,362,612.0844)"
           id="g36"><path
             id="path38"
             style="fill:none;stroke:#000000;stroke-width:2;stroke-linecap:butt;stroke-linejoin:miter;stroke-miterlimit:4;stroke-dasharray:none;stroke-opacity:1"
             d="M 0,0 H 69.83111" /></g><path
           id="path40"
           style="fill:#ff5500;fill-opacity:1;fill-rule:nonzero;stroke:none"
           d="m 440.0191,591.2642 c 4.9811,-4.9811 4.9811,-13.0571 0,-18.0381 -4.9811,-4.9811 -13.0571,-4.9811 -18.0382,0 -4.9811,4.981 -4.9811,13.057 0,18.0381 4.9811,4.9811 13.0571,4.9811 18.0382,0 z" /><g
           transform="matrix(-0.9656828,0.2597244,0.2597244,0.9656828,418.9453,586.6938)"
           id="g42"><path
             id="path44"
             style="fill:none;stroke:#000000;stroke-width:2;stroke-linecap:butt;stroke-linejoin:miter;stroke-miterlimit:4;stroke-dasharray:none;stroke-opacity:1"
             d="M 0,0 H 45.0863" /></g><path
           id="path46"
           style="fill:#aaff00;fill-opacity:1;fill-rule:nonzero;stroke:none"
           d="m 306.0191,589.0776 c 4.9811,-4.9811 4.9811,-13.057 0,-18.0381 -4.9811,-4.9811 -13.0571,-4.9811 -18.0382,0 -4.9811,4.9811 -4.9811,13.057 0,18.0381 4.9811,4.9811 13.0571,4.9811 18.0382,0 z" /><g
           transform="matrix(0.9334587,0.3586849,0.3586849,-0.9334587,307.0938,584.5073)"
           id="g48"><path
             id="path50"
             style="fill:none;stroke:#000000;stroke-width:2;stroke-linecap:butt;stroke-linejoin:miter;stroke-miterlimit:4;stroke-dasharray:none;stroke-opacity:1"
             d="M 0,0 H 44.83912" /></g><path
           id="path52"
           style="fill:#ffaa00;fill-opacity:1;fill-rule:nonzero;stroke:none"
           d="m 475.5684,478.2642 c 4.981,-4.9811 4.981,-13.0571 0,-18.0381 -4.9811,-4.9811 -13.0571,-4.9811 -18.0382,0 -4.9811,4.981 -4.9811,13.057 0,18.0381 4.9811,4.9811 13.0571,4.9811 18.0382,0 z" /><g
           transform="matrix(-0.2967316,0.9549609,0.9549609,0.2967316,463.7385,481.8299)"
           id="g54"><path
             id="path56"
             style="fill:none;stroke:#000000;stroke-width:2;stroke-linecap:butt;stroke-linejoin:miter;stroke-miterlimit:4;stroke-dasharray:none;stroke-opacity:1"
             d="M 0,0 H 93.37984" /></g><path
           id="path58"
           style="fill:#55ff00;fill-opacity:1;fill-rule:nonzero;stroke:none"
           d="m 269.4698,479.2642 c 4.9811,-4.9811 4.9811,-13.0571 0,-18.0381 -4.9811,-4.9811 -13.0571,-4.9811 -18.0382,0 -4.9811,4.981 -4.9811,13.057 0,18.0381 4.9811,4.9811 13.0571,4.9811 18.0382,0 z" /><g
           transform="matrix(0.2993187,0.9541532,0.9541532,-0.2993187,264.3066,482.4393)"
           id="g60"><path
             id="path62"
             style="fill:none;stroke:#000000;stroke-width:2;stroke-linecap:butt;stroke-linejoin:miter;stroke-miterlimit:4;stroke-dasharray:none;stroke-opacity:1"
             d="M 0,0 H 90.58494" /></g><path
           id="path64"
           style="fill:#ffff00;fill-opacity:1;fill-rule:nonzero;stroke:none"
           d="m 504.7161,378.2642 c 4.9811,-4.9811 4.9811,-13.0571 0,-18.0381 -4.9811,-4.9811 -13.0571,-4.9811 -18.0381,0 -4.9811,4.981 -4.9811,13.057 0,18.0381 4.981,4.9811 13.057,4.9811 18.0381,0 z" /><g
           transform="matrix(-0.2827131,0.9592045,0.9592045,0.2827131,492.5688,381.494)"
           id="g66"><path
             id="path68"
             style="fill:none;stroke:#000000;stroke-width:2;stroke-linecap:butt;stroke-linejoin:miter;stroke-miterlimit:4;stroke-dasharray:none;stroke-opacity:1"
             d="M 0,0 H 78.20433" /></g><path
           id="path70"
           style="fill:#2bff00;fill-opacity:1;fill-rule:nonzero;stroke:none"
           d="m 240.5684,372.2642 c 4.981,-4.9811 4.981,-13.0571 0,-18.0381 -4.9811,-4.9811 -13.0571,-4.9811 -18.0382,0 -4.9811,4.981 -4.9811,13.057 0,18.0381 4.9811,4.9811 13.0571,4.9811 18.0382,0 z" /><g
           transform="matrix(0.2552165,0.9668839,0.9668839,-0.2552165,235.3613,376.4237)"
           id="g72"><path
             id="path74"
             style="fill:none;stroke:#000000;stroke-width:2;stroke-linecap:butt;stroke-linejoin:miter;stroke-miterlimit:4;stroke-dasharray:none;stroke-opacity:1"
             d="M 0,0 H 85.45319" /></g><path
           id="path76"
           style="fill:#aa00ff;fill-opacity:1;fill-rule:nonzero;stroke:none"
           d="m 371.0191,517.8064 c 4.9811,-4.9811 4.9811,-13.057 0,-18.0381 -4.9811,-4.9811 -13.0571,-4.9811 -18.0382,0 -4.9811,4.9811 -4.9811,13.057 0,18.0381 4.9811,4.9811 13.0571,4.9811 18.0382,0 z" /><g
           transform="matrix(-0.00107379,1,1,0.00107379,362.0742,520.0368)"
           id="g78"><path
             id="path80"
             style="fill:none;stroke:#000000;stroke-width:2;stroke-linecap:butt;stroke-linejoin:miter;stroke-miterlimit:4;stroke-dasharray:none;stroke-opacity:1"
             d="M 0,0 H 69.1178" /></g><path
           id="path82"
           style="fill:#00ffff;fill-opacity:1;fill-rule:nonzero;stroke:none"
           d="m 431.0191,416.2642 c 4.9811,-4.9811 4.9811,-13.0571 0,-18.0381 -4.9811,-4.9811 -13.0571,-4.9811 -18.0382,0 -4.9811,4.981 -4.9811,13.057 0,18.0381 4.9811,4.9811 13.0571,4.9811 18.0382,0 z" /><g
           transform="matrix(-0.5726638,0.8197903,0.8197903,0.5726638,418.4243,418.7556)"
           id="g84"><path
             id="path86"
             style="fill:none;stroke:#000000;stroke-width:2;stroke-linecap:butt;stroke-linejoin:miter;stroke-miterlimit:4;stroke-dasharray:none;stroke-opacity:1"
             d="M 0,0 H 95.02603" /></g><path
           id="path88"
           style="fill:#01ff00;fill-opacity:1;fill-rule:nonzero;stroke:none"
           d="m 317.5684,413.909 c 4.981,-4.9811 4.981,-13.057 0,-18.0381 -4.9811,-4.9811 -13.0571,-4.9811 -18.0382,0 -4.9811,4.9811 -4.9811,13.057 0,18.0381 4.9811,4.9811 13.0571,4.9811 18.0382,0 z" /><g
           transform="matrix(0.5243074,0.851529,0.851529,-0.5243074,312.3917,417.7348)"
           id="g90"><path
             id="path92"
             style="fill:none;stroke:#000000;stroke-width:2;stroke-linecap:butt;stroke-linejoin:miter;stroke-miterlimit:4;stroke-dasharray:none;stroke-opacity:1"
             d="M 0,0 H 92.5515" /></g><path
           id="path94"
           style="fill:#00aaff;fill-opacity:1;fill-rule:nonzero;stroke:none"
           d="m 461.2008,303.2642 c 4.9811,-4.9811 4.9811,-13.0571 0,-18.0381 -4.9811,-4.9811 -13.057,-4.9811 -18.0381,0 -4.9811,4.981 -4.9811,13.057 0,18.0381 4.9811,4.9811 13.057,4.9811 18.0381,0 z" /><g
           transform="matrix(-0.2619333,0.965086,0.965086,0.2619333,449.2364,306.8299)"
           id="g96"><path
             id="path98"
             style="fill:none;stroke:#000000;stroke-width:2;stroke-linecap:butt;stroke-linejoin:miter;stroke-miterlimit:4;stroke-dasharray:none;stroke-opacity:1"
             d="M 0,0 H 92.04398" /></g><path
           id="path100"
           style="fill:#0055ff;fill-opacity:1;fill-rule:nonzero;stroke:none"
           d="m 490.5684,197.2642 c 4.981,-4.9811 4.981,-13.0571 0,-18.0381 -4.9811,-4.9811 -13.0571,-4.9811 -18.0382,0 -4.9811,4.981 -4.9811,13.057 0,18.0381 4.9811,4.9811 13.0571,4.9811 18.0382,0 z" /><g
           transform="matrix(-0.2809155,0.9597325,0.9597325,0.2809155,479.0138,201.0526)"
           id="g102"><path
             id="path104"
             style="fill:none;stroke:#000000;stroke-width:2;stroke-linecap:butt;stroke-linejoin:miter;stroke-miterlimit:4;stroke-dasharray:none;stroke-opacity:1"
             d="M 0,0 H 85.03171" /></g><path
           id="path106"
           style="fill:#01ff55;fill-opacity:1;fill-rule:nonzero;stroke:none"
           d="m 288.0926,305.2642 c 4.9811,-4.9811 4.9811,-13.0571 0,-18.0381 -4.9811,-4.9811 -13.0571,-4.9811 -18.0381,0 -4.9811,4.981 -4.9811,13.057 0,18.0381 4.981,4.9811 13.057,4.9811 18.0381,0 z" /><g
           transform="matrix(0.2669363,0.9637142,0.9637142,-0.2669363,281.3309,308.619)"
           id="g108"><path
             id="path110"
             style="fill:none;stroke:#000000;stroke-width:2;stroke-linecap:butt;stroke-linejoin:miter;stroke-miterlimit:4;stroke-dasharray:none;stroke-opacity:1"
             d="M 0,0 H 88.46215" /></g><path
           id="path112"
           style="fill:#00ffaa;fill-opacity:1;fill-rule:nonzero;stroke:none"
           d="m 261.0926,197.2642 c 4.9811,-4.9811 4.9811,-13.0571 0,-18.0381 -4.9811,-4.9811 -13.057,-4.9811 -18.0381,0 -4.9811,4.981 -4.9811,13.057 0,18.0381 4.9811,4.9811 13.057,4.9811 18.0381,0 z" /><g
           transform="matrix(0.2669363,0.9637142,0.9637142,-0.2669363,254.3309,200.619)"
           id="g114"><path
             id="path116"
             style="fill:none;stroke:#000000;stroke-width:2;stroke-linecap:butt;stroke-linejoin:miter;stroke-miterlimit:4;stroke-dasharray:none;stroke-opacity:1"
             d="M 0,0 H 88.46215" /></g><g
           transform="translate(110,703)"
           id="g118"><text
             id="text122"
             style="font-variant:normal;font-weight:bold;font-size:21px;font-family:'Helvetica Neue';-inkscape-font-specification:HelveticaNeue-Bold;writing-mode:lr-tb;fill:#000000;fill-opacity:1;fill-rule:nonzero;stroke:none"
             transform="scale(1,-1)"><tspan
               id="tspan120"
               y="0"
               x="0 14.007 26.837999 38.115002 50.168999 56.007 75.032997 87.863998 100.695 112.749 118.167 124.005 143.052 157.05901 163.254 169.092 180.76801">Pose model MPI 15</tspan></text>
</g><g
           transform="translate(374,708)"
           id="g124"><text
             id="text128"
             style="font-variant:normal;font-weight:300;font-size:20px;font-family:'Helvetica Neue';-inkscape-font-specification:HelveticaNeue-Light;writing-mode:lr-tb;fill:#000000;fill-opacity:1;fill-rule:nonzero;stroke:none"
             transform="scale(1,-1)"><tspan
               id="tspan126"
               y="0"
               x="0 14.08 24.459999 34.84">Head</tspan></text>
</g><g
           transform="translate(375,616)"
           id="g130"><text
             id="text134"
             style="font-variant:normal;font-weight:300;font-size:20px;font-family:'Helvetica Neue';-inkscape-font-specification:HelveticaNeue-Light;writing-mode:lr-tb;fill:#000000;fill-opacity:1;fill-rule:nonzero;stroke:none"
             transform="scale(1,-1)"><tspan
               id="tspan132"
               y="0"
               x="0 14.08 24.459999 34.84">Neck</tspan></text>
</g><g
           transform="translate(449,593)"
           id="g136"><text
             id="text140"
             style="font-variant:normal;font-weight:300;font-size:20px;font-family:'Helvetica Neue';-inkscape-font-specification:HelveticaNeue-Light;writing-mode:lr-tb;fill:#000000;fill-opacity:1;fill-rule:nonzero;stroke:none"
             transform="scale(1,-1)"><tspan
               id="tspan138"
               y="0"
               x="0 10.74 23.34 34.080002 45.200001 55.939999 59.639999 71.120003 81.5">LShoulder</tspan></text>
</g><g
           transform="translate(193,593)"
           id="g142"><text
             id="text146"
             style="font-variant:normal;font-weight:300;font-size:20px;font-family:'Helvetica Neue';-inkscape-font-specification:HelveticaNeue-Light;writing-mode:lr-tb;fill:#000000;fill-opacity:1;fill-rule:nonzero;stroke:none"
             transform="scale(1,-1)"><tspan
               id="tspan144"
               y="0"
               x="0 13.34 25.940001 36.68 47.799999 58.540001 62.240002 73.720001 84.099998">RShoulder</tspan></text>
</g><g
           transform="translate(478,483)"
           id="g148"><text
             id="text152"
             style="font-variant:normal;font-weight:300;font-size:20px;font-family:'Helvetica Neue';-inkscape-font-specification:HelveticaNeue-Light;writing-mode:lr-tb;fill:#000000;fill-opacity:1;fill-rule:nonzero;stroke:none"
             transform="scale(1,-1)"><tspan
               id="tspan150"
               y="0"
               x="0 10.74 22.6 26.299999 37.779999 48.900002">LElbow</tspan></text>
</g><g
           transform="translate(505,386)"
           id="g154"><text
             id="text158"
             style="font-variant:normal;font-weight:300;font-size:20px;font-family:'Helvetica Neue';-inkscape-font-specification:HelveticaNeue-Light;writing-mode:lr-tb;fill:#000000;fill-opacity:1;fill-rule:nonzero;stroke:none"
             transform="scale(1,-1)"><tspan
               id="tspan156"
               y="0"
               x="0 9.6400003 27.42 33.720001 37.419998 47.040001">LWrist</tspan></text>
</g><g
           transform="translate(186,483)"
           id="g160"><text
             id="text164"
             style="font-variant:normal;font-weight:300;font-size:20px;font-family:'Helvetica Neue';-inkscape-font-specification:HelveticaNeue-Light;writing-mode:lr-tb;fill:#000000;fill-opacity:1;fill-rule:nonzero;stroke:none"
             transform="scale(1,-1)"><tspan
               id="tspan162"
               y="0"
               x="0 13.34 25.200001 28.9 40.380001 51.5">RElbow</tspan></text>
</g><g
           transform="translate(165,384)"
           id="g166"><text
             id="text170"
             style="font-variant:normal;font-weight:300;font-size:20px;font-family:'Helvetica Neue';-inkscape-font-specification:HelveticaNeue-Light;writing-mode:lr-tb;fill:#000000;fill-opacity:1;fill-rule:nonzero;stroke:none"
             transform="scale(1,-1)"><tspan
               id="tspan168"
               y="0"
               x="0 13.46 31.24 37.540001 41.240002 50.860001">RWrist</tspan></text>
</g><g
           transform="translate(374,519)"
           id="g172"><text
             id="text176"
             style="font-variant:normal;font-weight:300;font-size:20px;font-family:'Helvetica Neue';-inkscape-font-specification:HelveticaNeue-Light;writing-mode:lr-tb;fill:#000000;fill-opacity:1;fill-rule:nonzero;stroke:none"
             transform="scale(1,-1)"><tspan
               id="tspan174"
               y="0"
               x="0 14.08 24.82 35.200001 44.82">Chest</tspan></text>
</g><g
           transform="translate(417,426)"
           id="g178"><text
             id="text182"
             style="font-variant:normal;font-weight:300;font-size:20px;font-family:'Helvetica Neue';-inkscape-font-specification:HelveticaNeue-Light;writing-mode:lr-tb;fill:#000000;fill-opacity:1;fill-rule:nonzero;stroke:none"
             transform="scale(1,-1)"><tspan
               id="tspan180"
               y="0"
               x="0 10.74 24.82 28.52">LHip</tspan></text>
</g><g
           transform="translate(465,306)"
           id="g184"><text
             id="text188"
             style="font-variant:normal;font-weight:300;font-size:20px;font-family:'Helvetica Neue';-inkscape-font-specification:HelveticaNeue-Light;writing-mode:lr-tb;fill:#000000;fill-opacity:1;fill-rule:nonzero;stroke:none"
             transform="scale(1,-1)"><tspan
               id="tspan186"
               y="0"
               x="0 10.74 23.700001 34.439999 44.82">LKnee</tspan></text>
</g><g
           transform="translate(492,205)"
           id="g190"><text
             id="text194"
             style="font-variant:normal;font-weight:300;font-size:20px;font-family:'Helvetica Neue';-inkscape-font-specification:HelveticaNeue-Light;writing-mode:lr-tb;fill:#000000;fill-opacity:1;fill-rule:nonzero;stroke:none"
             transform="scale(1,-1)"><tspan
               id="tspan192"
               y="0"
               x="0 10.74 23.34 34.080002 44.080002 47.779999">LAnkle</tspan></text>
</g><g
           transform="translate(271,424)"
           id="g196"><text
             id="text200"
             style="font-variant:normal;font-weight:300;font-size:20px;font-family:'Helvetica Neue';-inkscape-font-specification:HelveticaNeue-Light;writing-mode:lr-tb;fill:#000000;fill-opacity:1;fill-rule:nonzero;stroke:none"
             transform="scale(1,-1)"><tspan
               id="tspan198"
               y="0"
               x="0 13.34 27.42 31.120001">RHip</tspan></text>
</g><g
           transform="translate(210,306)"
           id="g202"><text
             id="text206"
             style="font-variant:normal;font-weight:300;font-size:20px;font-family:'Helvetica Neue';-inkscape-font-specification:HelveticaNeue-Light;writing-mode:lr-tb;fill:#000000;fill-opacity:1;fill-rule:nonzero;stroke:none"
             transform="scale(1,-1)"><tspan
               id="tspan204"
               y="0"
               x="0 13.34 26.299999 37.040001 47.419998">RKnee</tspan></text>
</g><g
           transform="translate(176,198)"
           id="g208"><text
             id="text212"
             style="font-variant:normal;font-weight:300;font-size:20px;font-family:'Helvetica Neue';-inkscape-font-specification:HelveticaNeue-Light;writing-mode:lr-tb;fill:#000000;fill-opacity:1;fill-rule:nonzero;stroke:none"
             transform="scale(1,-1)"><tspan
               id="tspan210"
               y="0"
               x="0 13.34 25.940001 36.68 46.68 50.380001">RAnkle</tspan></text>
</g><g
           transform="translate(461,704)"
           id="g214"><text
             id="text218"
             style="font-variant:normal;font-weight:300;font-size:19px;font-family:'Helvetica Neue';-inkscape-font-specification:HelveticaNeue-Light;writing-mode:lr-tb;fill:#000000;fill-opacity:1;fill-rule:nonzero;stroke:none"
             transform="scale(1,-1)"><tspan
               id="tspan216"
               y="0"
               x="0 13.376 23.940001 34.143002 43.282001 46.797001 57.702999 67.564003 73.549004 77.064003 87.266998 97.831001 103.113 108.737 118.94 128.80099 134.425 139.707 149.56799 154.85001 165.05299 175.256 191.08299 200.944 211.147">Considering that a human </tspan></text>
</g><g
           transform="translate(461,681)"
           id="g220"><text
             id="text224"
             style="font-variant:normal;font-weight:300;font-size:19px;font-family:'Helvetica Neue';-inkscape-font-specification:HelveticaNeue-Light;writing-mode:lr-tb;fill:#000000;fill-opacity:1;fill-rule:nonzero;stroke:none"
             transform="scale(1,-1)"><tspan
               id="tspan222"
               y="0"
               x="0 4.921 14.782 24.643 34.504002 39.785999 50.692001 54.207001 59.849998 69.710999 79.571999 85.195999 95.056999 105.963 111.245 116.869 127.433 132.715 138.339 148.54201 158.403 163.685 172.82401 182.685 188.328 198.189 208.05">face directed to the screen</tspan></text>
</g><g
           transform="translate(114,151)"
           id="g226"><text
             id="text230"
             style="font-style:italic;font-variant:normal;font-weight:300;font-size:16px;font-family:'Helvetica Neue';-inkscape-font-specification:HelveticaNeue-LightItalic;writing-mode:lr-tb;fill:#000000;fill-opacity:1;fill-rule:nonzero;stroke:none"
             transform="scale(1,-1)"><tspan
               id="tspan228"
               y="0"
               x="0 8.8959999 17.488001 25.792 30.544001 38.848 43.296001 51.599998 56.352001 64.655998 69.103996 78 86.896004 91.344002 100.528 109.424 118.608 126.016 130.464 133.424 142.32001 145.28 153.87199 158.608 166.304">There are 15 body joints:</tspan></text>
</g><g
           transform="translate(114,151)"
           id="g232" /><g
           transform="translate(114,151)"
           id="g234"><text
             id="text238"
             style="font-variant:normal;font-weight:300;font-size:16px;font-family:'Helvetica Neue';-inkscape-font-specification:HelveticaNeue-Light;writing-mode:lr-tb;fill:#000000;fill-opacity:1;fill-rule:nonzero;stroke:none"
             transform="matrix(1,0,0,-1,175.2,0)"><tspan
               id="tspan236"
               y="0"
               x="0 11.264 19.568001 27.872 37.056 41.504002 45.952 57.216 65.519997 73.823997 81.823997 86.272003 90.720001 101.392 111.472 120.064 128.96001 137.552 140.51199 149.696 158 161.56799 166.01601 170.464 181.136 190.62399 193.584 202.76801 211.664 222.64 227.088 231.536 242.304 256.52802 261.56799 264.52802 272.224 276.95999 281.40799">Head, Neck, RShoulder, RElbow, RWrist, </tspan></text>
</g><g
           transform="translate(114,133)"
           id="g240"><text
             id="text244"
             style="font-variant:normal;font-weight:300;font-size:16px;font-family:'Helvetica Neue';-inkscape-font-specification:HelveticaNeue-Light;writing-mode:lr-tb;fill:#000000;fill-opacity:1;fill-rule:nonzero;stroke:none"
             transform="scale(1,-1)"><tspan
               id="tspan242"
               y="0"
               x="0 8.592 18.672001 27.264 36.16 44.751999 47.712002 56.896 65.199997 68.767998 73.216003 77.664001 86.255997 95.744003 98.704002 107.888 116.784 127.76 132.20799 136.65601 144.368 158.592 163.632 166.592 174.28799 179.024 183.472 187.92 198.592 209.856 212.81599 222 226.448 230.896 241.56799 251.936 260.52802 268.832 277.13599 281.58401 286.03201 296.70401 306.784 315.37601 323.37601 326.336 334.64001 339.08801 343.53601 352.12799 363.392 366.35199 375.53601 379.98401 384.43201 393.02399 403.392 411.98401 420.28799 428.59201 433.04001 437.48801 446.07999 456.16 464.75201 472.75201 475.71201 484.01599 488.46399 492.91199 504.17599 512.76801 521.07202 528.76801">LShoulder, LElbow, LWrist, RHip, RKnee, RAnkle, LHip, LKnee, LAnkle, Chest</tspan></text>
</g><g
           transform="translate(114,133)"
           id="g246"><text
             id="text250"
             style="font-variant:normal;font-weight:normal;font-size:16px;font-family:'Lucida Grande';-inkscape-font-specification:LucidaGrande;writing-mode:lr-tb;fill:#000000;fill-opacity:1;fill-rule:nonzero;stroke:none"
             transform="matrix(1,0,0,-1,533.504,0)"><tspan
               id="tspan248"
               y="0"
               x="0"> </tspan></text>
</g><g
           transform="translate(114,115)"
           id="g252"><text
             id="text256"
             style="font-style:italic;font-variant:normal;font-weight:300;font-size:16px;font-family:'Helvetica Neue';-inkscape-font-specification:HelveticaNeue-LightItalic;writing-mode:lr-tb;fill:#000000;fill-opacity:1;fill-rule:nonzero;stroke:none"
             transform="scale(1,-1)"><tspan
               id="tspan254"
               y="0"
               x="0 8.3039999 16.896 26.08 30.528 39.424 48.32 52.768002 55.728001 64.624001 67.584 76.176003 80.912003 85.360001 93.664001 102.56 111.152 119.744 128.048 136.35201 141.088 144.048 152.944 161.536 169.23199">and 14 joint connections:</tspan></text>
</g><g
           transform="translate(114,115)"
           id="g258"><text
             id="text262"
             style="font-variant:normal;font-weight:300;font-size:16px;font-family:'Helvetica Neue';-inkscape-font-specification:HelveticaNeue-Light;writing-mode:lr-tb;fill:#000000;fill-opacity:1;fill-rule:nonzero;stroke:none"
             transform="matrix(1,0,0,-1,178.128,0)"><tspan
               id="tspan260"
               y="0"
               x="0 3.8559999 15.12 23.424 31.728001 40.911999 45.360001 49.807999 61.071999 69.375999 77.68 85.68 89.536003 93.984001">(Head, Neck), </tspan></text>
</g><g
           transform="translate(114,97)"
           id="g264"><text
             id="text268"
             style="font-variant:normal;font-weight:300;font-size:16px;font-family:'Helvetica Neue';-inkscape-font-specification:HelveticaNeue-Light;writing-mode:lr-tb;fill:#000000;fill-opacity:1;fill-rule:nonzero;stroke:none"
             transform="scale(1,-1)"><tspan
               id="tspan266"
               y="0"
               x="0 3.8559999 15.12 23.424 31.728001 39.728001 44.175999 48.624001 59.296001 69.375999 77.968002 86.863998 95.456001 98.416 107.6 115.904 120.944 124.8 129.248 133.696 137.552 148.224 158.304 166.896 175.79201 184.384 187.34399 196.528 204.832 208.39999 212.84801 217.29601 227.968 237.45599 240.416 249.60001 258.496 270.35199 274.20801 278.65601 282.51199 293.18399 302.672 305.63199 314.81601 323.71201 334.68799 339.13599 343.58401 354.35199 368.57599 373.616 376.57599 384.272 389.008">(Neck, RShoulder), (RShoulder, RElbow),(RElbow, RWrist)</tspan></text>
</g><g
           transform="translate(114,97)"
           id="g270"><text
             id="text274"
             style="font-variant:normal;font-weight:normal;font-size:16px;font-family:'Lucida Grande';-inkscape-font-specification:LucidaGrande;writing-mode:lr-tb;fill:#000000;fill-opacity:1;fill-rule:nonzero;stroke:none"
             transform="matrix(1,0,0,-1,392.864,0)"><tspan
               id="tspan272"
               y="0"
               x="0"> </tspan></text>
</g><g
           transform="translate(114,79)"
           id="g276"><text
             id="text280"
             style="font-variant:normal;font-weight:300;font-size:16px;font-family:'Helvetica Neue';-inkscape-font-specification:HelveticaNeue-Light;writing-mode:lr-tb;fill:#000000;fill-opacity:1;fill-rule:nonzero;stroke:none"
             transform="scale(1,-1)"><tspan
               id="tspan278"
               y="0"
               x="0 3.8559999 15.12 23.424 31.728001 39.728001 44.175999 48.624001 57.216 67.295998 75.888 84.783997 93.375999 96.335999 105.52 113.824 118.864 122.72 127.168 131.616 135.472 144.064 154.144 162.73599 171.632 180.224 183.18401 192.368 200.672 204.24001 208.688 213.136 221.728 231.216 234.17599 243.36 252.256 264.112 267.96799 272.41599 276.86401 280.72 289.31201 298.79999 301.76001 310.944 319.84 330.81601 335.26401 339.71201 347.42401 361.64801 366.68799 369.64801 377.34399 382.07999 385.936">(Neck, LShoulder), (LShoulder, LElbow), (LElbow, LWrist),</tspan></text>
</g><g
           transform="translate(114,79)"
           id="g282"><text
             id="text286"
             style="font-variant:normal;font-weight:normal;font-size:16px;font-family:'Lucida Grande';-inkscape-font-specification:LucidaGrande;writing-mode:lr-tb;fill:#000000;fill-opacity:1;fill-rule:nonzero;stroke:none"
             transform="matrix(1,0,0,-1,390.384,0)"><tspan
               id="tspan284"
               y="0"
               x="0"> </tspan></text>
</g><g
           transform="translate(114,61)"
           id="g288"><text
             id="text292"
             style="font-variant:normal;font-weight:300;font-size:16px;font-family:'Helvetica Neue';-inkscape-font-specification:HelveticaNeue-Light;writing-mode:lr-tb;fill:#000000;fill-opacity:1;fill-rule:nonzero;stroke:none"
             transform="scale(1,-1)"><tspan
               id="tspan290"
               y="0"
               x="0 3.8559999 15.12 23.424 31.728001 39.728001 44.175999 48.624001 59.888 68.480003 76.783997 84.480003 89.216003">(Neck, Chest)</tspan></text>
</g><g
           transform="translate(114,61)"
           id="g294"><text
             id="text298"
             style="font-variant:normal;font-weight:normal;font-size:16px;font-family:'Lucida Grande';-inkscape-font-specification:LucidaGrande;writing-mode:lr-tb;fill:#000000;fill-opacity:1;fill-rule:nonzero;stroke:none"
             transform="matrix(1,0,0,-1,93.072,0)"><tspan
               id="tspan296"
               y="0"
               x="0"> </tspan></text>
</g><g
           transform="translate(114,43)"
           id="g300"><text
             id="text304"
             style="font-variant:normal;font-weight:300;font-size:16px;font-family:'Helvetica Neue';-inkscape-font-specification:HelveticaNeue-Light;writing-mode:lr-tb;fill:#000000;fill-opacity:1;fill-rule:nonzero;stroke:none"
             transform="scale(1,-1)"><tspan
               id="tspan302"
               y="0"
               x="0 3.8559999 15.12 23.712 32.015999 39.712002 44.448002 48.896 53.344002 64.015999 75.279999 78.239998 87.424004 91.279999 95.727997 100.176 104.032 114.704 125.968 128.92799 138.112 142.56 147.008 157.67999 168.048 176.64 184.944 193.248 197.104 201.552 206 209.856 220.528 230.896 239.48801 247.79201 256.09601 260.54401 264.992 275.664 285.74399 294.336 302.336 305.29599 313.60001">(Chest, RHip), (RHip, RKnee), (RKnee, RAnkle)</tspan></text>
</g><g
           transform="translate(114,43)"
           id="g306"><text
             id="text310"
             style="font-variant:normal;font-weight:normal;font-size:16px;font-family:'Lucida Grande';-inkscape-font-specification:LucidaGrande;writing-mode:lr-tb;fill:#000000;fill-opacity:1;fill-rule:nonzero;stroke:none"
             transform="matrix(1,0,0,-1,317.456,0)"><tspan
               id="tspan308"
               y="0"
               x="0"> </tspan></text>
</g><g
           transform="translate(114,25)"
           id="g312"><text
             id="text316"
             style="font-variant:normal;font-weight:300;font-size:16px;font-family:'Helvetica Neue';-inkscape-font-specification:HelveticaNeue-Light;writing-mode:lr-tb;fill:#000000;fill-opacity:1;fill-rule:nonzero;stroke:none"
             transform="scale(1,-1)"><tspan
               id="tspan314"
               y="0"
               x="0 3.8559999 15.12 23.712 32.015999 39.712002 44.448002 48.896 53.344002 61.936001 73.199997 76.160004 85.344002 89.199997 93.648003 98.096001 101.952 110.544 121.808 124.768 133.952 138.39999 142.84801 151.44 161.808 170.39999 178.70399 187.008 190.864 195.312 199.75999 203.616 212.20799 222.576 231.168 239.472 247.776 252.224 256.672 265.26401 275.34399 283.936 291.936 294.896 303.20001">(Chest, LHip), (LHip, LKnee), (LKnee, LAnkle)</tspan></text>
</g><g
           transform="translate(114,25)"
           id="g318"><text
             id="text322"
             style="font-variant:normal;font-weight:normal;font-size:16px;font-family:'Lucida Grande';-inkscape-font-specification:LucidaGrande;writing-mode:lr-tb;fill:#000000;fill-opacity:1;fill-rule:nonzero;stroke:none"
             transform="matrix(1,0,0,-1,307.056,0)"><tspan
               id="tspan320"
               y="0"
               x="0"> </tspan></text>
</g></g></g></g></svg>